<?xml version="1.0"?>
<svg xmlns="http://www.w3.org/2000/svg" viewBox="0 0 24 24">
    <path d="M2,10.476C2,13.013,4.55,21,10.477,21H21c0.347,0,0.669-0.18,0.851-0.475c0.183-0.295,0.198-0.664,0.043-0.974 c-0.025-0.051-2.572-5.168-2.572-8.567c0-3.516,0.731-6.727,0.739-6.759c0.068-0.297-0.002-0.609-0.192-0.848 C19.679,3.139,19.391,3,19.086,3H4.276c-0.44,0-0.828,0.288-0.957,0.709C3.265,3.886,2,8.069,2,10.476z M11.451,16H7V8h1.615v6.659 h2.835V16z M17.285,9.346h-1.978V16h-1.621V9.346h-1.945V8h5.544V9.346z"/>
</svg>
